<?xml version="1.0" encoding="iso-8859-1"?>
<!-- Generator: Adobe Illustrator 16.0.0, SVG Export Plug-In . SVG Version: 6.00 Build 0)  -->
<!DOCTYPE svg PUBLIC "-//W3C//DTD SVG 1.1//EN" "http://www.w3.org/Graphics/SVG/1.1/DTD/svg11.dtd">
<svg version="1.1" id="Capa_1" xmlns="http://www.w3.org/2000/svg" xmlns:xlink="http://www.w3.org/1999/xlink" x="0px" y="0px"
	 width="45.759px" height="45.759px" viewBox="0 0 45.759 45.759" style="enable-background:new 0 0 45.759 45.759;"
	 xml:space="preserve">
<g>
	<g>
		<circle cx="22.869" cy="7.751" r="7.751"/>
		<path d="M22.87,23.945c3.325,0,6.03-2.742,6.03-6.03H16.839C16.839,21.203,19.544,23.945,22.87,23.945z"/>
		<path d="M31.899,17.977c-0.034,4.431-3.28,8.111-7.509,8.821v7.277c0,3.748-2.832,7.039-6.574,7.251
			c-3.874,0.22-7.129-2.75-7.36-6.521c-1.026-0.597-1.664-1.796-1.415-3.113c0.221-1.174,1.193-2.131,2.372-2.33
			c1.854-0.314,3.459,1.104,3.459,2.898c0,1.072-0.574,2.01-1.432,2.524c0.219,2.12,2.105,3.752,4.324,3.551
			c2.082-0.188,3.606-2.073,3.606-4.164v-7.375c-4.227-0.709-7.475-4.39-7.509-8.821c-4.175,0.539-7.387,4.106-7.387,8.427v15.619
			c0,2.063,1.674,3.737,3.737,3.737h25.335c2.064,0,3.738-1.673,3.738-3.737V26.404C39.287,22.083,36.074,18.516,31.899,17.977z"/>
	</g>
</g>
<g>
</g>
<g>
</g>
<g>
</g>
<g>
</g>
<g>
</g>
<g>
</g>
<g>
</g>
<g>
</g>
<g>
</g>
<g>
</g>
<g>
</g>
<g>
</g>
<g>
</g>
<g>
</g>
<g>
</g>
</svg>
